<svg width="630" height="429" viewBox="0 0 630 429" fill="none" xmlns="http://www.w3.org/2000/svg">
<path d="M7.92519 0C5.82341 0.00033622 3.80792 0.83556 2.32173 2.32173C0.835545 3.80791 0.000357239 5.82341 0 7.92519V173.453C0.000336226 175.555 0.835543 177.57 2.32173 179.057C3.80792 180.543 5.8234 181.378 7.92519 181.378H32.5241C34.6259 181.378 36.6414 180.543 38.1275 179.057C39.6137 177.57 40.4489 175.555 40.4493 173.453V107.447H112.399V173.453C112.399 175.555 113.234 177.57 114.72 179.057C116.206 180.543 118.222 181.378 120.324 181.378H144.922C147.024 181.378 149.04 180.543 150.526 179.057C152.012 177.57 152.847 175.555 152.848 173.453V7.92519C152.847 5.82341 152.012 3.80791 150.526 2.32173C149.04 0.83556 147.024 0.00033622 144.922 0H120.324C118.222 0.000357234 116.206 0.835562 114.72 2.32173C113.234 3.8079 112.399 5.82343 112.399 7.92519V69.7826H40.4493V7.92519C40.4489 5.82341 39.6137 3.80791 38.1275 2.32173C36.6414 0.83556 34.6259 0.00033622 32.5241 0H7.92519ZM403.046 41.9361C396.305 41.9361 389.301 42.4529 382.039 43.4679C374.732 44.4893 368.052 45.9589 361.95 47.9115C360.349 48.4233 358.952 49.4308 357.961 50.7884C356.97 52.1459 356.436 53.7832 356.437 55.464V74.1324C356.438 75.3852 356.736 76.6199 357.306 77.7354C357.877 78.8508 358.703 79.8151 359.718 80.5493C360.734 81.2835 361.908 81.7665 363.146 81.9589C364.384 82.1513 365.65 82.0476 366.84 81.6561C372.051 79.9421 377.524 78.667 383.28 77.8348C389.147 76.9865 394.543 76.5775 399.471 76.5775C406.586 76.5775 411.957 77.4148 415.276 78.5926C415.324 78.6089 415.371 78.6248 415.419 78.6402C418.577 79.6928 420.154 81.0287 421.44 83.3011C421.466 83.3532 421.492 83.4049 421.519 83.4564C422.711 85.4551 423.672 89.4541 423.764 95.0636L403.359 97.1074C385.679 98.6721 371.992 102.495 362.291 110.05C352.774 117.448 347.711 128.837 347.711 141.583C347.711 149.648 349.618 157.223 353.563 163.704C353.574 163.719 353.585 163.735 353.595 163.751C357.571 170.188 363.49 175.207 370.654 178.52C377.897 181.871 386.23 183.398 395.453 183.398C403.834 183.398 411.861 181.911 419.323 178.909C419.35 178.899 419.377 178.888 419.404 178.877C422.561 177.571 424.609 175.002 427.358 173.197L427.53 174.528C427.789 176.426 428.726 178.166 430.169 179.427C431.612 180.687 433.462 181.383 435.378 181.384H455.516C457.618 181.384 459.634 180.549 461.12 179.062C462.606 177.576 463.441 175.561 463.441 173.459V96.9594C463.441 84.3954 461.47 73.8025 456.741 65.271C452.083 56.8688 444.653 50.5425 435.488 46.9752C426.555 43.4723 415.785 41.9416 403.054 41.9416L403.046 41.9361ZM493.807 43.8406C492.515 43.8425 491.242 44.1604 490.101 44.7667C488.959 45.373 487.983 46.2489 487.258 47.3187C486.533 48.3885 486.08 49.6194 485.939 50.9042C485.799 52.189 485.974 53.4887 486.451 54.69L534.875 176.377C535.756 177.371 536.873 178.128 538.122 178.577L521.576 219.706C521.092 220.909 520.911 222.212 521.048 223.5C521.186 224.789 521.637 226.025 522.363 227.099C523.088 228.173 524.066 229.053 525.211 229.661C526.355 230.27 527.631 230.588 528.928 230.588H552.863C554.449 230.59 555.999 230.116 557.312 229.227C558.626 228.338 559.642 227.076 560.231 225.604L628.449 54.7065C628.93 53.5033 629.108 52.2007 628.968 50.9127C628.829 49.6247 628.375 48.3907 627.648 47.3185C626.921 46.2462 625.942 45.3684 624.797 44.7621C623.653 44.1558 622.377 43.8394 621.081 43.8406H597.15C595.552 43.8419 593.992 44.3258 592.674 45.2292C591.357 46.1325 590.343 47.413 589.765 48.9027L557.876 131.362L526.732 48.9642C526.163 47.4577 525.148 46.1605 523.823 45.2451C522.498 44.3298 520.925 43.84 519.315 43.8406H493.807ZM423.869 125.726V141.625C421.123 144.055 418.335 146.317 415.059 147.646L415.027 147.662C410.893 149.364 406.685 150.201 402.167 150.201C395.847 150.201 392.303 148.808 390.555 147.306C388.67 145.684 387.721 143.878 387.721 139.565C387.721 135.514 388.572 133.923 390.817 132.168C390.845 132.147 390.872 132.126 390.899 132.104C393.029 130.401 398.35 128.316 406.794 127.431L423.869 125.726Z" fill="#093461"/>
<path d="M261.515 41.936C253.016 41.936 244.964 43.5173 237.629 46.7483C237.618 46.7536 237.607 46.759 237.597 46.7643C234.783 48.0188 232.903 50.3987 230.401 52.0601L230.245 50.8067C230.011 48.8857 229.082 47.1167 227.633 45.8333C226.185 44.55 224.317 43.8409 222.382 43.8398H202.026C199.924 43.8401 197.909 44.6754 196.422 46.1615C194.936 47.6477 194.101 49.6632 194.101 51.765V152.544C205.35 148.223 215.594 142.496 225.146 135.162C229.944 131.478 237.474 124.798 237.822 123.919C237.932 123.643 237.783 123.478 237.314 123.341C236.742 123.176 231.791 121.484 223.385 118.578C218.243 116.801 216.265 116.075 216.209 115.949C216.162 115.835 234.538 106.339 250.204 98.382C254.148 96.379 272.735 86.8645 280.213 83.0193C284.492 80.8194 285.607 80.2493 285.943 80.2094C286.054 80.1936 286.079 80.2412 286.107 80.3038C286.154 80.4171 285.835 82.5105 285.394 84.9526C284.377 90.5875 282.541 100.91 276.597 134.392C273.977 149.15 271.778 161.237 271.714 161.256C271.611 161.287 259.303 141.311 258.055 139.094C257.608 138.297 257.569 138.274 257.158 138.578C250.946 143.145 241.366 148.793 233.641 152.446C221.355 158.255 208.002 162.25 194.101 164.381V218.673C191.311 324.588 191.296 323.767 184.57 331.625C176.395 341.176 165.53 342.92 149.511 337.252C136.038 332.485 117.794 323.136 106.223 314.873C96.3557 307.827 80.3596 292.842 75.6532 286.232L73.3307 282.968L81.9032 283.644C86.6154 284.011 92.0981 284.886 94.0921 285.585C97.7385 286.865 99.6416 285.898 99.6007 282.784C99.5936 282.189 93.404 273.441 85.8474 263.337C78.2907 253.234 65.3369 235.861 57.0626 224.731C47.6748 212.103 41.318 204.49 40.1557 204.49C37.8849 204.49 37.7706 205.309 34.827 242.289C33.6213 257.435 32.1637 275.173 31.5874 281.707C30.0891 298.687 30.2102 303.487 32.1524 304.233C33.1765 304.626 36.6284 302.285 41.5276 297.872C45.7939 294.03 49.836 290.885 50.5096 290.885C51.1833 290.885 52.5841 293.679 53.6222 297.094C56.7218 307.291 65.6557 324.284 73.1505 334.238C82.0883 346.108 97.0632 360.221 109.738 368.72C126.151 379.726 139.994 385.78 170.006 395.084C181.882 398.766 188.454 403.171 202.767 417.037L214.272 428.181L226.879 415.952C241.567 401.709 248.477 397.611 266.472 392.438C287.502 386.392 302.103 379.726 318.926 368.499C331.139 360.347 347.126 345.275 355.578 333.947C362.4 324.804 371.577 307.567 374.48 298.441C375.519 295.174 376.771 292.065 377.265 291.528C378.276 290.428 384.044 294.396 390.801 300.842C394.915 304.766 395.367 304.942 397.01 303.299C398.259 302.048 398.621 300.359 398.239 297.557C397.824 294.509 393.552 242.317 390.973 208.815C390.499 202.656 387.241 203.328 381.791 210.716C379.277 214.122 366.525 231.243 353.448 248.765C331.582 278.066 327.979 284.154 330.693 285.831C331.153 286.116 334.247 285.712 337.794 284.877C344.81 283.226 354.505 282.815 354.505 284.168C354.505 286.32 336.341 304.262 327.314 311.028C311.015 323.242 299.845 329.465 281.515 336.351C267.718 341.534 260.184 341.912 252.121 337.826C245.189 334.313 239.597 327.005 238.207 319.649C237.626 316.572 236.612 291.464 235.955 263.845C235.679 252.272 234.536 234.74 234.116 218.608H234.1V182.447C238.634 182.866 243.352 183.5 247.538 183.5C270.43 183.5 289.188 177.488 302.183 164.676L302.199 164.66C315.282 151.827 321.453 133.114 321.453 110.265C321.453 95.4665 319.075 82.7825 313.777 72.3551V72.3392C308.633 62.1406 301.242 54.1395 291.902 49.1494C282.897 44.3004 272.61 41.936 261.515 41.936Z" fill="#6D53F4"/>
</svg>
